<?xml version="1.0" encoding="UTF-8" standalone="no"?><!DOCTYPE svg PUBLIC "-//W3C//DTD SVG 1.1//EN" "http://www.w3.org/Graphics/SVG/1.1/DTD/svg11.dtd"><svg width="100%" height="100%" viewBox="0 0 225 92" version="1.1" xmlns="http://www.w3.org/2000/svg" xmlns:xlink="http://www.w3.org/1999/xlink" xml:space="preserve" style="fill-rule:evenodd;clip-rule:evenodd;stroke-linejoin:round;stroke-miterlimit:1.41421;"><g id="name"><g><path d="M91.934,69.353c-2.792,0 -5.234,-0.327 -7.328,-0.981c-2.094,-0.654 -3.877,-1.56 -5.349,-2.716c-1.473,-1.156 -2.639,-2.53 -3.501,-4.122c-0.861,-1.592 -1.456,-3.337 -1.783,-5.234l7.917,0c0.284,1.156 0.687,2.241 1.211,3.255c0.523,1.014 1.188,1.892 1.995,2.634c0.807,0.741 1.767,1.325 2.879,1.75c1.113,0.425 2.4,0.638 3.861,0.638c0.981,0 1.947,-0.104 2.895,-0.311c0.949,-0.207 1.8,-0.54 2.552,-0.998c0.753,-0.458 1.358,-1.063 1.816,-1.816c0.458,-0.752 0.687,-1.674 0.687,-2.764c0,-1.396 -0.354,-2.628 -1.063,-3.697c-0.709,-1.069 -1.647,-2.045 -2.814,-2.928c-1.167,-0.883 -2.497,-1.707 -3.991,-2.47c-1.494,-0.763 -3.016,-1.532 -4.564,-2.307c-1.549,-0.774 -3.07,-1.581 -4.564,-2.421c-1.494,-0.839 -2.824,-1.783 -3.991,-2.829c-1.167,-1.047 -2.105,-2.225 -2.814,-3.534c-0.709,-1.308 -1.063,-2.813 -1.063,-4.515c0,-1.854 0.403,-3.571 1.21,-5.152c0.807,-1.582 1.98,-2.95 3.517,-4.106c1.538,-1.156 3.419,-2.061 5.644,-2.716c2.224,-0.654 4.755,-0.981 7.59,-0.981c2.355,0 4.482,0.327 6.38,0.981c1.897,0.655 3.571,1.543 5.021,2.667c1.451,1.123 2.672,2.448 3.665,3.975c0.992,1.526 1.75,3.173 2.273,4.94l-7.197,0c-0.415,-1.113 -0.894,-2.17 -1.44,-3.174c-0.545,-1.003 -1.221,-1.886 -2.028,-2.65c-0.807,-0.763 -1.778,-1.368 -2.912,-1.815c-1.134,-0.448 -2.497,-0.671 -4.089,-0.671c-1.483,0 -2.738,0.196 -3.763,0.589c-1.025,0.392 -1.854,0.889 -2.486,1.488c-0.633,0.6 -1.085,1.271 -1.358,2.012c-0.272,0.742 -0.409,1.473 -0.409,2.192c0,1.244 0.366,2.372 1.096,3.387c0.731,1.014 1.702,1.952 2.912,2.813c1.211,0.862 2.579,1.69 4.106,2.486c1.527,0.797 3.092,1.598 4.695,2.405c1.603,0.807 3.173,1.647 4.711,2.519c1.537,0.873 2.911,1.838 4.122,2.896c1.21,1.057 2.181,2.23 2.912,3.517c0.73,1.286 1.096,2.737 1.096,4.351c0,1.897 -0.393,3.659 -1.178,5.283c-0.785,1.625 -1.947,3.043 -3.484,4.254c-1.538,1.21 -3.446,2.159 -5.726,2.846c-2.279,0.687 -4.902,1.03 -7.868,1.03Z" style="fill:#e6e6ee;fill-rule:nonzero;"/><path d="M138.421,21.032l21.821,47.602l-11.679,0l-5.824,-12.727l-18.092,0l-6.118,12.727l-7.786,0l22.738,-47.602l4.94,0Zm-11.647,30.524l14.035,0l-6.903,-15.049l-7.132,15.049Z" style="fill:#e6e6ee;fill-rule:nonzero;"/><path d="M163.645,22.046l11.483,0l0,17.503l20.644,-17.503l8.866,0l-23.294,19.695l29.543,26.893l-13.839,0l-21.92,-19.957l0,19.957l-11.483,0l0,-46.588Z" style="fill:#e6e6ee;fill-rule:nonzero;"/><rect x="212.948" y="22.046" width="11.418" height="46.588" style="fill:#e6e6ee;fill-rule:nonzero;"/></g><g><path d="M153.542,82.531l0,9.05l-4.659,0l0,-19.009l4.659,0l0,8.33l7.649,0l0,-8.33l4.618,0l0,19.009l-4.618,0l0,-9.05l-7.649,0Z" style="fill:#e6e6ee;fill-rule:nonzero;"/><path d="M174.964,91.875c-1.139,0 -2.136,-0.134 -2.99,-0.401c-0.855,-0.267 -1.582,-0.636 -2.183,-1.108c-0.6,-0.471 -1.077,-1.032 -1.428,-1.682c-0.352,-0.649 -0.594,-1.361 -0.728,-2.135l3.231,0c0.116,0.471 0.28,0.914 0.494,1.328c0.213,0.414 0.485,0.772 0.814,1.074c0.329,0.303 0.721,0.541 1.175,0.715c0.454,0.173 0.979,0.26 1.575,0.26c0.4,0 0.794,-0.042 1.181,-0.127c0.387,-0.084 0.735,-0.22 1.042,-0.407c0.307,-0.187 0.554,-0.434 0.74,-0.741c0.187,-0.307 0.281,-0.683 0.281,-1.128c0,-0.569 -0.145,-1.072 -0.434,-1.508c-0.289,-0.436 -0.672,-0.835 -1.148,-1.195c-0.476,-0.36 -1.019,-0.696 -1.629,-1.008c-0.609,-0.311 -1.23,-0.625 -1.862,-0.941c-0.632,-0.316 -1.252,-0.645 -1.862,-0.988c-0.61,-0.342 -1.153,-0.727 -1.629,-1.155c-0.476,-0.427 -0.858,-0.907 -1.148,-1.441c-0.289,-0.534 -0.434,-1.148 -0.434,-1.842c0,-0.757 0.165,-1.458 0.494,-2.103c0.33,-0.645 0.808,-1.203 1.435,-1.675c0.628,-0.472 1.395,-0.841 2.303,-1.108c0.908,-0.267 1.94,-0.401 3.097,-0.401c0.961,0 1.829,0.134 2.603,0.401c0.774,0.267 1.457,0.63 2.049,1.088c0.592,0.458 1.09,0.999 1.495,1.622c0.405,0.623 0.714,1.295 0.928,2.015l-2.937,0c-0.169,-0.453 -0.365,-0.885 -0.587,-1.294c-0.223,-0.41 -0.498,-0.77 -0.828,-1.082c-0.329,-0.311 -0.725,-0.558 -1.188,-0.741c-0.463,-0.182 -1.019,-0.273 -1.668,-0.273c-0.606,0 -1.117,0.08 -1.536,0.24c-0.418,0.16 -0.756,0.363 -1.014,0.607c-0.258,0.245 -0.443,0.519 -0.554,0.821c-0.111,0.303 -0.167,0.601 -0.167,0.895c0,0.507 0.149,0.968 0.447,1.381c0.298,0.414 0.694,0.797 1.188,1.148c0.494,0.352 1.053,0.69 1.676,1.015c0.623,0.325 1.261,0.652 1.915,0.981c0.654,0.329 1.295,0.672 1.922,1.028c0.628,0.356 1.189,0.75 1.682,1.181c0.494,0.432 0.89,0.91 1.189,1.435c0.298,0.525 0.447,1.117 0.447,1.776c0,0.774 -0.16,1.493 -0.481,2.156c-0.32,0.663 -0.794,1.241 -1.422,1.735c-0.627,0.494 -1.406,0.881 -2.336,1.161c-0.93,0.281 -2,0.421 -3.21,0.421Z" style="fill:#e6e6ee;fill-rule:nonzero;"/><rect x="184.452" y="72.572" width="4.659" height="19.009" style="fill:#e6e6ee;fill-rule:nonzero;"/><path d="M206.128,72.572l0,1.615l-9.531,0l0,6.275l7.916,0l0,1.628l-7.916,0l0,7.542l9.531,0l0,1.949l-14.19,0l0,-19.009l14.19,0Z" style="fill:#e6e6ee;fill-rule:nonzero;"/><path d="M212.613,82.531l0,9.05l-4.659,0l0,-19.009l4.659,0l0,8.33l7.649,0l0,-8.33l4.619,0l0,19.009l-4.619,0l0,-9.05l-7.649,0Z" style="fill:#e6e6ee;fill-rule:nonzero;"/></g><path d="M21.679,83.63c-3.033,-0.146 -5.781,-0.764 -8.242,-1.854c-2.461,-1.089 -4.595,-2.571 -6.402,-4.447c-1.806,-1.876 -3.281,-4.117 -4.424,-6.722c-1.143,-2.605 -1.893,-5.515 -2.251,-8.729c-0.357,-3.215 -0.317,-6.686 0.12,-10.413c0.437,-3.728 1.32,-7.654 2.647,-11.776c1.304,-4.048 2.914,-7.862 4.83,-11.442c1.917,-3.581 4.049,-6.856 6.398,-9.825c2.349,-2.97 4.895,-5.635 7.637,-7.996c2.743,-2.36 5.572,-4.327 8.489,-5.899c2.917,-1.572 5.908,-2.75 8.972,-3.535c3.065,-0.785 6.114,-1.104 9.147,-0.958c3.033,0.147 5.787,0.746 8.26,1.798c2.474,1.051 4.623,2.487 6.447,4.307c1.825,1.82 3.32,3.995 4.488,6.525c1.167,2.53 1.947,5.346 2.341,8.448c0.394,3.102 0.387,6.47 -0.02,10.104c-0.407,3.634 -1.256,7.456 -2.548,11.466c-1.364,4.236 -3.025,8.209 -4.984,11.92c-1.958,3.712 -4.13,7.109 -6.515,10.191c-2.386,3.082 -4.956,5.822 -7.71,8.22c-2.754,2.398 -5.599,4.412 -8.534,6.04c-2.935,1.628 -5.934,2.835 -8.999,3.619c-3.065,0.785 -6.114,1.104 -9.147,0.958Zm2.19,-6.803c2.743,0.133 5.45,-0.641 8.12,-2.32c2.67,-1.679 5.227,-4.068 7.671,-7.166c2.444,-3.098 4.729,-6.803 6.854,-11.116c2.125,-4.312 4.015,-9.036 5.668,-14.17c1.63,-5.06 2.761,-9.715 3.393,-13.967c0.633,-4.251 0.726,-7.929 0.28,-11.033c-0.447,-3.105 -1.447,-5.551 -3.001,-7.338c-1.553,-1.788 -3.701,-2.748 -6.444,-2.88c-2.77,-0.134 -5.481,0.592 -8.134,2.177c-2.653,1.584 -5.174,3.861 -7.562,6.828c-2.389,2.968 -4.625,6.542 -6.708,10.724c-2.083,4.181 -3.939,8.802 -5.569,13.861c-1.653,5.135 -2.818,9.893 -3.492,14.276c-0.675,4.382 -0.817,8.191 -0.426,11.426c0.391,3.235 1.355,5.793 2.892,7.675c1.536,1.882 3.689,2.89 6.458,3.023Z" style="fill:#e6e6ee;fill-rule:nonzero;"/></g></svg>