<?xml version="1.0" encoding="UTF-8" standalone="no"?><!DOCTYPE svg PUBLIC "-//W3C//DTD SVG 1.1//EN" "http://www.w3.org/Graphics/SVG/1.1/DTD/svg11.dtd"><svg width="100%" height="100%" viewBox="0 0 770 155" version="1.1" xmlns="http://www.w3.org/2000/svg" xmlns:xlink="http://www.w3.org/1999/xlink" xml:space="preserve" style="fill-rule:evenodd;clip-rule:evenodd;stroke-linejoin:round;stroke-miterlimit:1.41421;"><g id="vuecli"><path d="M55.191,151.084l-54.477,-147.399l32.766,0l42.228,114.035l40.833,-114.035l22.11,0l-52.685,147.399l-30.775,0Z" style="fill:#e6e6ee;fill-rule:nonzero;"/><path d="M145.734,3.685l30.675,0l0,90.331c0,14.276 2.357,24.584 7.071,30.924c4.714,6.341 12.316,9.512 22.807,9.512c10.026,0 17.28,-3.021 21.761,-9.064c4.482,-6.042 6.723,-15.769 6.723,-29.18l0,-92.523l26.691,0l0,90.531c0,13.611 -1.295,23.985 -3.884,31.123c-2.59,7.137 -7.304,13.329 -14.143,18.574c-9.361,7.237 -21.943,10.856 -37.746,10.856c-16.93,0 -30.542,-3.851 -40.833,-11.553c-7.104,-5.312 -12.067,-11.603 -14.889,-18.873c-2.822,-7.271 -4.233,-17.413 -4.233,-30.426l0,-90.232Z" style="fill:#e6e6ee;fill-rule:nonzero;"/><path d="M280.799,151.084l0,-147.399l92.124,0l0,20.217l-61.449,0l0,41.133l50.394,0l0,19.719l-50.394,0l0,45.415l66.13,0l0,20.915l-96.805,0Z" style="fill:#e6e6ee;fill-rule:nonzero;"/><rect x="388.723" y="93.519" width="71.807" height="12.25" style="fill:#e6e6ee;fill-rule:nonzero;"/><path d="M603.503,145.208c-14.275,6.374 -31.306,9.561 -51.092,9.561c-24.168,0 -42.991,-6.806 -56.47,-20.417c-13.478,-13.611 -20.217,-32.6 -20.217,-56.968c0,-24.832 6.789,-43.937 20.367,-57.316c13.578,-13.379 32.949,-20.068 58.113,-20.068c16.068,0 32.036,1.892 47.904,5.677l0,24.002c-17.993,-6.308 -33.065,-9.461 -45.215,-9.461c-15.537,0 -27.521,4.929 -35.954,14.789c-8.432,9.86 -12.648,23.853 -12.648,41.979c0,17.794 4.532,31.671 13.595,41.63c9.063,9.959 21.661,14.939 37.795,14.939c14.475,0 29.082,-3.652 43.822,-10.955l0,22.608Z" style="fill:#e6e6ee;fill-rule:nonzero;"/><path d="M619.995,151.084l0,-147.399l30.675,0l0,126.484l66.429,0l0,20.915l-97.104,0Z" style="fill:#e6e6ee;fill-rule:nonzero;"/><rect x="738.612" y="3.685" width="30.675" height="147.399" style="fill:#e6e6ee;fill-rule:nonzero;"/></g></svg>